<mxfile host="app.diagrams.net" modified="2023-07-05T09:07:25.203Z" agent="Mozilla/5.0 (Windows NT 10.0; Win64; x64) AppleWebKit/537.36 (KHTML, like Gecko) Chrome/114.0.0.0 Safari/537.36" etag="2hg4MjkF-0AvMONoeriS" version="21.5.2" type="device">
  <diagram name="Page-1" id="onQ6dksHgOtsEhzx2_aD">
    <mxGraphModel dx="1050" dy="491" grid="1" gridSize="10" guides="1" tooltips="1" connect="1" arrows="0" fold="1" page="1" pageScale="1" pageWidth="827" pageHeight="1169" math="0" shadow="0">
      <root>
        <mxCell id="0" />
        <mxCell id="1" parent="0" />
        <mxCell id="IbHBgF9U_nKuRBhnMwBe-21" style="edgeStyle=orthogonalEdgeStyle;rounded=0;orthogonalLoop=1;jettySize=auto;html=1;" edge="1" parent="1" source="IbHBgF9U_nKuRBhnMwBe-1">
          <mxGeometry relative="1" as="geometry">
            <mxPoint x="350" y="350" as="targetPoint" />
          </mxGeometry>
        </mxCell>
        <mxCell id="IbHBgF9U_nKuRBhnMwBe-1" value="Test set" style="rounded=1;whiteSpace=wrap;html=1;fillColor=#b1ddf0;strokeColor=#10739e;" vertex="1" parent="1">
          <mxGeometry x="190" y="359" width="80" height="60" as="geometry" />
        </mxCell>
        <mxCell id="IbHBgF9U_nKuRBhnMwBe-11" style="edgeStyle=orthogonalEdgeStyle;rounded=0;orthogonalLoop=1;jettySize=auto;html=1;exitX=1;exitY=0.5;exitDx=0;exitDy=0;" edge="1" parent="1" source="IbHBgF9U_nKuRBhnMwBe-49" target="IbHBgF9U_nKuRBhnMwBe-10">
          <mxGeometry relative="1" as="geometry">
            <mxPoint x="120" y="280" as="sourcePoint" />
          </mxGeometry>
        </mxCell>
        <mxCell id="IbHBgF9U_nKuRBhnMwBe-20" style="edgeStyle=orthogonalEdgeStyle;rounded=0;orthogonalLoop=1;jettySize=auto;html=1;entryX=0;entryY=0.5;entryDx=0;entryDy=0;exitX=0.5;exitY=1;exitDx=0;exitDy=0;" edge="1" parent="1" source="IbHBgF9U_nKuRBhnMwBe-49" target="IbHBgF9U_nKuRBhnMwBe-1">
          <mxGeometry relative="1" as="geometry">
            <mxPoint x="90" y="320" as="sourcePoint" />
            <Array as="points">
              <mxPoint x="90" y="305" />
              <mxPoint x="90" y="389" />
            </Array>
          </mxGeometry>
        </mxCell>
        <mxCell id="IbHBgF9U_nKuRBhnMwBe-5" value="Denoiser Autoencoder" style="sketch=0;points=[[0,0,0],[0.25,0,0],[0.5,0,0],[0.75,0,0],[1,0,0],[0,1,0],[0.25,1,0],[0.5,1,0],[0.75,1,0],[1,1,0],[0,0.25,0],[0,0.5,0],[0,0.75,0],[1,0.25,0],[1,0.5,0],[1,0.75,0]];outlineConnect=0;fontColor=#000000;gradientColor=none;gradientDirection=north;fillColor=none;strokeColor=#000000;dashed=0;verticalLabelPosition=bottom;verticalAlign=top;align=center;html=1;fontSize=12;fontStyle=0;aspect=fixed;shape=mxgraph.aws4.resourceIcon;resIcon=mxgraph.aws4.elastic_load_balancing;" vertex="1" parent="1">
          <mxGeometry x="310" y="241" width="78" height="78" as="geometry" />
        </mxCell>
        <mxCell id="IbHBgF9U_nKuRBhnMwBe-12" style="edgeStyle=orthogonalEdgeStyle;rounded=0;orthogonalLoop=1;jettySize=auto;html=1;entryX=0.5;entryY=0;entryDx=0;entryDy=0;" edge="1" parent="1" source="IbHBgF9U_nKuRBhnMwBe-8" target="IbHBgF9U_nKuRBhnMwBe-10">
          <mxGeometry relative="1" as="geometry" />
        </mxCell>
        <mxCell id="IbHBgF9U_nKuRBhnMwBe-8" value="Noise" style="rounded=1;whiteSpace=wrap;html=1;fillColor=#f8cecc;gradientColor=#ea6b66;strokeColor=#b85450;" vertex="1" parent="1">
          <mxGeometry x="162.5" y="69" width="120" height="60" as="geometry" />
        </mxCell>
        <mxCell id="IbHBgF9U_nKuRBhnMwBe-16" style="edgeStyle=orthogonalEdgeStyle;rounded=0;orthogonalLoop=1;jettySize=auto;html=1;entryX=0;entryY=0.5;entryDx=0;entryDy=0;entryPerimeter=0;" edge="1" parent="1" source="IbHBgF9U_nKuRBhnMwBe-10" target="IbHBgF9U_nKuRBhnMwBe-5">
          <mxGeometry relative="1" as="geometry" />
        </mxCell>
        <mxCell id="IbHBgF9U_nKuRBhnMwBe-10" value="Noise overlapping with train dataset" style="rounded=1;whiteSpace=wrap;html=1;fillColor=#b1ddf0;strokeColor=#10739e;" vertex="1" parent="1">
          <mxGeometry x="180" y="244.75" width="85" height="68.5" as="geometry" />
        </mxCell>
        <mxCell id="IbHBgF9U_nKuRBhnMwBe-31" style="edgeStyle=orthogonalEdgeStyle;rounded=0;orthogonalLoop=1;jettySize=auto;html=1;entryX=0;entryY=0.5;entryDx=0;entryDy=0;" edge="1" parent="1" source="IbHBgF9U_nKuRBhnMwBe-18" target="IbHBgF9U_nKuRBhnMwBe-26">
          <mxGeometry relative="1" as="geometry">
            <Array as="points">
              <mxPoint x="600" y="170" />
              <mxPoint x="600" y="159" />
            </Array>
          </mxGeometry>
        </mxCell>
        <mxCell id="IbHBgF9U_nKuRBhnMwBe-32" style="edgeStyle=orthogonalEdgeStyle;rounded=0;orthogonalLoop=1;jettySize=auto;html=1;entryX=0;entryY=0.5;entryDx=0;entryDy=0;" edge="1" parent="1" source="IbHBgF9U_nKuRBhnMwBe-18" target="IbHBgF9U_nKuRBhnMwBe-24">
          <mxGeometry relative="1" as="geometry">
            <Array as="points">
              <mxPoint x="600" y="170" />
              <mxPoint x="600" y="59" />
            </Array>
          </mxGeometry>
        </mxCell>
        <mxCell id="IbHBgF9U_nKuRBhnMwBe-33" style="edgeStyle=orthogonalEdgeStyle;rounded=0;orthogonalLoop=1;jettySize=auto;html=1;entryX=0;entryY=0.5;entryDx=0;entryDy=0;" edge="1" parent="1" source="IbHBgF9U_nKuRBhnMwBe-18" target="IbHBgF9U_nKuRBhnMwBe-28">
          <mxGeometry relative="1" as="geometry">
            <Array as="points">
              <mxPoint x="600" y="170" />
              <mxPoint x="600" y="259" />
            </Array>
          </mxGeometry>
        </mxCell>
        <mxCell id="IbHBgF9U_nKuRBhnMwBe-18" value="Denoised Audio" style="shape=cylinder3;whiteSpace=wrap;html=1;boundedLbl=1;backgroundOutline=1;size=15;fillColor=#fad9d5;strokeColor=#ae4132;" vertex="1" parent="1">
          <mxGeometry x="530" y="128" width="60" height="80" as="geometry" />
        </mxCell>
        <mxCell id="IbHBgF9U_nKuRBhnMwBe-42" style="edgeStyle=orthogonalEdgeStyle;rounded=0;orthogonalLoop=1;jettySize=auto;html=1;entryX=0;entryY=0.5;entryDx=0;entryDy=0;" edge="1" parent="1" source="IbHBgF9U_nKuRBhnMwBe-23" target="IbHBgF9U_nKuRBhnMwBe-40">
          <mxGeometry relative="1" as="geometry" />
        </mxCell>
        <mxCell id="IbHBgF9U_nKuRBhnMwBe-23" value="&lt;font&gt;STFT neural Network&lt;/font&gt;" style="sketch=0;points=[[0,0,0],[0.25,0,0],[0.5,0,0],[0.75,0,0],[1,0,0],[0,1,0],[0.25,1,0],[0.5,1,0],[0.75,1,0],[1,1,0],[0,0.25,0],[0,0.5,0],[0,0.75,0],[1,0.25,0],[1,0.5,0],[1,0.75,0]];outlineConnect=0;fontColor=#000000;gradientColor=none;gradientDirection=north;fillColor=none;strokeColor=#000000;dashed=0;verticalLabelPosition=bottom;verticalAlign=top;align=center;html=1;fontSize=12;fontStyle=0;aspect=fixed;shape=mxgraph.aws4.resourceIcon;resIcon=mxgraph.aws4.elastic_load_balancing;" vertex="1" parent="1">
          <mxGeometry x="810" y="20" width="78" height="78" as="geometry" />
        </mxCell>
        <mxCell id="IbHBgF9U_nKuRBhnMwBe-34" style="edgeStyle=orthogonalEdgeStyle;rounded=0;orthogonalLoop=1;jettySize=auto;html=1;" edge="1" parent="1" source="IbHBgF9U_nKuRBhnMwBe-24" target="IbHBgF9U_nKuRBhnMwBe-23">
          <mxGeometry relative="1" as="geometry" />
        </mxCell>
        <mxCell id="IbHBgF9U_nKuRBhnMwBe-24" value="STFT Feature extraction" style="rounded=1;whiteSpace=wrap;html=1;fillColor=#ffff88;strokeColor=#36393d;" vertex="1" parent="1">
          <mxGeometry x="650" y="29" width="120" height="60" as="geometry" />
        </mxCell>
        <mxCell id="IbHBgF9U_nKuRBhnMwBe-43" style="edgeStyle=orthogonalEdgeStyle;rounded=0;orthogonalLoop=1;jettySize=auto;html=1;entryX=0;entryY=0.5;entryDx=0;entryDy=0;" edge="1" parent="1" source="IbHBgF9U_nKuRBhnMwBe-25" target="IbHBgF9U_nKuRBhnMwBe-40">
          <mxGeometry relative="1" as="geometry" />
        </mxCell>
        <mxCell id="IbHBgF9U_nKuRBhnMwBe-25" value="&lt;font&gt;MFCC Neural Network&amp;nbsp;&lt;/font&gt;" style="sketch=0;points=[[0,0,0],[0.25,0,0],[0.5,0,0],[0.75,0,0],[1,0,0],[0,1,0],[0.25,1,0],[0.5,1,0],[0.75,1,0],[1,1,0],[0,0.25,0],[0,0.5,0],[0,0.75,0],[1,0.25,0],[1,0.5,0],[1,0.75,0]];outlineConnect=0;fontColor=#000000;gradientColor=none;gradientDirection=north;fillColor=none;strokeColor=#000000;dashed=0;verticalLabelPosition=bottom;verticalAlign=top;align=center;html=1;fontSize=12;fontStyle=0;aspect=fixed;shape=mxgraph.aws4.resourceIcon;resIcon=mxgraph.aws4.elastic_load_balancing;" vertex="1" parent="1">
          <mxGeometry x="810" y="120" width="78" height="78" as="geometry" />
        </mxCell>
        <mxCell id="IbHBgF9U_nKuRBhnMwBe-35" style="edgeStyle=orthogonalEdgeStyle;rounded=0;orthogonalLoop=1;jettySize=auto;html=1;entryX=0;entryY=0.5;entryDx=0;entryDy=0;entryPerimeter=0;" edge="1" parent="1" source="IbHBgF9U_nKuRBhnMwBe-26" target="IbHBgF9U_nKuRBhnMwBe-25">
          <mxGeometry relative="1" as="geometry" />
        </mxCell>
        <mxCell id="IbHBgF9U_nKuRBhnMwBe-26" value="MFCC Feature extraction" style="rounded=1;whiteSpace=wrap;html=1;fillColor=#ffff88;strokeColor=#36393d;" vertex="1" parent="1">
          <mxGeometry x="650" y="129" width="120" height="60" as="geometry" />
        </mxCell>
        <mxCell id="IbHBgF9U_nKuRBhnMwBe-44" style="edgeStyle=orthogonalEdgeStyle;rounded=0;orthogonalLoop=1;jettySize=auto;html=1;entryX=0;entryY=0.5;entryDx=0;entryDy=0;" edge="1" parent="1" source="IbHBgF9U_nKuRBhnMwBe-27" target="IbHBgF9U_nKuRBhnMwBe-40">
          <mxGeometry relative="1" as="geometry" />
        </mxCell>
        <mxCell id="IbHBgF9U_nKuRBhnMwBe-27" value="&lt;font&gt;Multi Layer Perceptron&lt;/font&gt;" style="sketch=0;points=[[0,0,0],[0.25,0,0],[0.5,0,0],[0.75,0,0],[1,0,0],[0,1,0],[0.25,1,0],[0.5,1,0],[0.75,1,0],[1,1,0],[0,0.25,0],[0,0.5,0],[0,0.75,0],[1,0.25,0],[1,0.5,0],[1,0.75,0]];outlineConnect=0;fontColor=#000000;gradientColor=none;gradientDirection=north;fillColor=none;strokeColor=#000000;dashed=0;verticalLabelPosition=bottom;verticalAlign=top;align=center;html=1;fontSize=12;fontStyle=0;aspect=fixed;shape=mxgraph.aws4.resourceIcon;resIcon=mxgraph.aws4.elastic_load_balancing;" vertex="1" parent="1">
          <mxGeometry x="810" y="220" width="78" height="78" as="geometry" />
        </mxCell>
        <mxCell id="IbHBgF9U_nKuRBhnMwBe-36" style="edgeStyle=orthogonalEdgeStyle;rounded=0;orthogonalLoop=1;jettySize=auto;html=1;entryX=0;entryY=0.5;entryDx=0;entryDy=0;entryPerimeter=0;" edge="1" parent="1" source="IbHBgF9U_nKuRBhnMwBe-28" target="IbHBgF9U_nKuRBhnMwBe-27">
          <mxGeometry relative="1" as="geometry" />
        </mxCell>
        <mxCell id="IbHBgF9U_nKuRBhnMwBe-28" value="OpenSmile Feature extraction&lt;span style=&quot;white-space: pre;&quot;&gt;&#x9;&lt;/span&gt;" style="rounded=1;whiteSpace=wrap;html=1;fillColor=#ffff88;strokeColor=#36393d;" vertex="1" parent="1">
          <mxGeometry x="650" y="229" width="120" height="60" as="geometry" />
        </mxCell>
        <mxCell id="IbHBgF9U_nKuRBhnMwBe-47" value="" style="edgeStyle=orthogonalEdgeStyle;rounded=0;orthogonalLoop=1;jettySize=auto;html=1;" edge="1" parent="1" source="IbHBgF9U_nKuRBhnMwBe-40" target="IbHBgF9U_nKuRBhnMwBe-46">
          <mxGeometry relative="1" as="geometry" />
        </mxCell>
        <mxCell id="IbHBgF9U_nKuRBhnMwBe-40" value="Saliency Analysis" style="rounded=1;whiteSpace=wrap;html=1;fillColor=#d5e8d4;gradientColor=#97d077;strokeColor=#82b366;" vertex="1" parent="1">
          <mxGeometry x="950" y="129" width="120" height="60" as="geometry" />
        </mxCell>
        <mxCell id="IbHBgF9U_nKuRBhnMwBe-46" value="Feature Analysis" style="rounded=1;whiteSpace=wrap;html=1;fillColor=#a20025;strokeColor=#6F0000;fontColor=#ffffff;" vertex="1" parent="1">
          <mxGeometry x="950" y="269" width="120" height="60" as="geometry" />
        </mxCell>
        <mxCell id="IbHBgF9U_nKuRBhnMwBe-50" style="edgeStyle=orthogonalEdgeStyle;rounded=0;orthogonalLoop=1;jettySize=auto;html=1;entryX=0.5;entryY=0;entryDx=0;entryDy=0;" edge="1" parent="1" source="IbHBgF9U_nKuRBhnMwBe-48" target="IbHBgF9U_nKuRBhnMwBe-49">
          <mxGeometry relative="1" as="geometry" />
        </mxCell>
        <mxCell id="IbHBgF9U_nKuRBhnMwBe-56" style="edgeStyle=orthogonalEdgeStyle;rounded=0;orthogonalLoop=1;jettySize=auto;html=1;entryX=0.5;entryY=0;entryDx=0;entryDy=0;entryPerimeter=0;" edge="1" parent="1" source="IbHBgF9U_nKuRBhnMwBe-48" target="IbHBgF9U_nKuRBhnMwBe-54">
          <mxGeometry relative="1" as="geometry">
            <Array as="points">
              <mxPoint x="90" y="30" />
              <mxPoint x="459" y="30" />
            </Array>
          </mxGeometry>
        </mxCell>
        <mxCell id="IbHBgF9U_nKuRBhnMwBe-48" value="Raw Audio Data" style="shape=cylinder3;whiteSpace=wrap;html=1;boundedLbl=1;backgroundOutline=1;size=15;fillColor=#ffcccc;strokeColor=#36393d;" vertex="1" parent="1">
          <mxGeometry x="60" y="59" width="60" height="80" as="geometry" />
        </mxCell>
        <mxCell id="IbHBgF9U_nKuRBhnMwBe-49" value="Data augmentation" style="rounded=1;whiteSpace=wrap;html=1;fillColor=#b1ddf0;strokeColor=#10739e;" vertex="1" parent="1">
          <mxGeometry x="50" y="249" width="80" height="60" as="geometry" />
        </mxCell>
        <mxCell id="IbHBgF9U_nKuRBhnMwBe-65" style="edgeStyle=orthogonalEdgeStyle;rounded=0;orthogonalLoop=1;jettySize=auto;html=1;entryX=0;entryY=0.5;entryDx=0;entryDy=0;entryPerimeter=0;" edge="1" parent="1" source="IbHBgF9U_nKuRBhnMwBe-54" target="IbHBgF9U_nKuRBhnMwBe-18">
          <mxGeometry relative="1" as="geometry" />
        </mxCell>
        <mxCell id="IbHBgF9U_nKuRBhnMwBe-54" value="Frozen Autoencoder" style="sketch=0;points=[[0,0,0],[0.25,0,0],[0.5,0,0],[0.75,0,0],[1,0,0],[0,1,0],[0.25,1,0],[0.5,1,0],[0.75,1,0],[1,1,0],[0,0.25,0],[0,0.5,0],[0,0.75,0],[1,0.25,0],[1,0.5,0],[1,0.75,0]];outlineConnect=0;fontColor=#000000;gradientColor=none;gradientDirection=north;fillColor=none;strokeColor=#000000;dashed=0;verticalLabelPosition=bottom;verticalAlign=top;align=center;html=1;fontSize=12;fontStyle=0;aspect=fixed;shape=mxgraph.aws4.resourceIcon;resIcon=mxgraph.aws4.elastic_load_balancing;" vertex="1" parent="1">
          <mxGeometry x="420" y="129" width="78" height="78" as="geometry" />
        </mxCell>
        <mxCell id="IbHBgF9U_nKuRBhnMwBe-58" value="" style="endArrow=classic;rounded=0;exitX=0.5;exitY=0;exitDx=0;exitDy=0;exitPerimeter=0;entryX=0;entryY=0.5;entryDx=0;entryDy=0;entryPerimeter=0;html=1;" edge="1" parent="1" source="IbHBgF9U_nKuRBhnMwBe-5" target="IbHBgF9U_nKuRBhnMwBe-54">
          <mxGeometry relative="1" as="geometry">
            <mxPoint x="460" y="260" as="sourcePoint" />
            <mxPoint x="560" y="260" as="targetPoint" />
            <Array as="points">
              <mxPoint x="349" y="168" />
            </Array>
          </mxGeometry>
        </mxCell>
        <mxCell id="IbHBgF9U_nKuRBhnMwBe-59" value="Post Training" style="edgeLabel;resizable=0;html=1;align=center;verticalAlign=middle;" connectable="0" vertex="1" parent="IbHBgF9U_nKuRBhnMwBe-58">
          <mxGeometry relative="1" as="geometry" />
        </mxCell>
        <mxCell id="IbHBgF9U_nKuRBhnMwBe-60" value="Input raw audio data" style="text;html=1;strokeColor=none;fillColor=none;align=center;verticalAlign=middle;whiteSpace=wrap;rounded=0;" vertex="1" parent="1">
          <mxGeometry x="390" y="59" width="60" height="30" as="geometry" />
        </mxCell>
      </root>
    </mxGraphModel>
  </diagram>
</mxfile>
